<svg width="18" height="19" viewBox="0 0 18 19" fill="none" xmlns="http://www.w3.org/2000/svg">
<path d="M1.15137 6.82422C0.577148 6.82422 0.290039 6.53125 0.290039 5.94531V3.80957C0.290039 2.87207 0.533203 2.16309 1.01953 1.68262C1.50586 1.20215 2.22363 0.961914 3.17285 0.961914H5.30859C5.88867 0.961914 6.17871 1.24902 6.17871 1.82324C6.17871 2.40332 5.88867 2.69336 5.30859 2.69336H3.27832C2.86816 2.69336 2.55469 2.79883 2.33789 3.00977C2.12695 3.2207 2.02148 3.54004 2.02148 3.96777V5.94531C2.02148 6.53125 1.73145 6.82422 1.15137 6.82422ZM16.8398 6.82422C16.2656 6.82422 15.9785 6.53125 15.9785 5.94531V3.96777C15.9785 3.54004 15.8672 3.2207 15.6445 3.00977C15.4277 2.79883 15.1172 2.69336 14.7129 2.69336H12.6826C12.1025 2.69336 11.8125 2.40332 11.8125 1.82324C11.8125 1.24902 12.1025 0.961914 12.6826 0.961914H14.8184C15.7734 0.961914 16.4941 1.20215 16.9805 1.68262C17.4668 2.16309 17.71 2.87207 17.71 3.80957V5.94531C17.71 6.53125 17.4199 6.82422 16.8398 6.82422ZM3.17285 18.373C2.22363 18.373 1.50586 18.1299 1.01953 17.6436C0.533203 17.1631 0.290039 16.4541 0.290039 15.5166V13.3896C0.290039 12.8037 0.577148 12.5107 1.15137 12.5107C1.73145 12.5107 2.02148 12.8037 2.02148 13.3896V15.3672C2.02148 15.7949 2.12695 16.1143 2.33789 16.3252C2.55469 16.5361 2.86816 16.6416 3.27832 16.6416H5.30859C5.88867 16.6416 6.17871 16.9316 6.17871 17.5117C6.17871 18.0859 5.88867 18.373 5.30859 18.373H3.17285ZM12.6826 18.373C12.1025 18.373 11.8125 18.0859 11.8125 17.5117C11.8125 16.9316 12.1025 16.6416 12.6826 16.6416H14.7129C15.1172 16.6416 15.4277 16.5361 15.6445 16.3252C15.8672 16.1143 15.9785 15.7949 15.9785 15.3672V13.3896C15.9785 12.8037 16.2656 12.5107 16.8398 12.5107C17.4199 12.5107 17.71 12.8037 17.71 13.3896V15.5166C17.71 16.4541 17.4668 17.1631 16.9805 17.6436C16.4941 18.1299 15.7734 18.373 14.8184 18.373H12.6826ZM9.00879 12.6074C8.46973 12.6074 7.97461 12.4756 7.52344 12.2119C7.07812 11.9424 6.7207 11.585 6.45117 11.1396C6.1875 10.6885 6.05566 10.1934 6.05566 9.6543C6.05566 9.12109 6.1875 8.63184 6.45117 8.18652C6.7207 7.74121 7.07812 7.38672 7.52344 7.12305C7.97461 6.85352 8.46973 6.71875 9.00879 6.71875C9.54785 6.71875 10.04 6.85352 10.4854 7.12305C10.9307 7.38672 11.2852 7.74121 11.5488 8.18652C11.8125 8.63184 11.9443 9.12109 11.9443 9.6543C11.9443 10.1934 11.8125 10.6885 11.5488 11.1396C11.2852 11.585 10.9307 11.9424 10.4854 12.2119C10.04 12.4756 9.54785 12.6074 9.00879 12.6074Z" fill="#999999"/>
</svg>
