<svg width="22" height="20" viewBox="0 0 22 20" fill="none" xmlns="http://www.w3.org/2000/svg">
<path d="M1.41504 12.0713C1.2041 12.0713 1.02246 11.9951 0.870117 11.8428C0.723633 11.6846 0.650391 11.5 0.650391 11.2891V8.02832C0.650391 7.81738 0.723633 7.63281 0.870117 7.47461C1.02246 7.31641 1.2041 7.2373 1.41504 7.2373C1.6377 7.2373 1.8252 7.31641 1.97754 7.47461C2.12988 7.63281 2.20605 7.81738 2.20605 8.02832V11.2891C2.20605 11.5 2.12988 11.6846 1.97754 11.8428C1.8252 11.9951 1.6377 12.0713 1.41504 12.0713ZM4.44727 15.6133C4.23047 15.6133 4.0459 15.5371 3.89355 15.3848C3.74707 15.2324 3.67383 15.0479 3.67383 14.8311V4.48633C3.67383 4.26953 3.74707 4.08496 3.89355 3.93262C4.0459 3.77441 4.23047 3.69531 4.44727 3.69531C4.66992 3.69531 4.85449 3.77441 5.00098 3.93262C5.15332 4.08496 5.22949 4.26953 5.22949 4.48633V14.8311C5.22949 15.0479 5.15332 15.2324 5.00098 15.3848C4.85449 15.5371 4.66992 15.6133 4.44727 15.6133ZM7.4707 19.0234C7.25391 19.0234 7.07227 18.9473 6.92578 18.7949C6.7793 18.6484 6.70605 18.4639 6.70605 18.2412V1.07617C6.70605 0.853516 6.7793 0.666016 6.92578 0.513672C7.07227 0.361328 7.25391 0.285156 7.4707 0.285156C7.69336 0.285156 7.88086 0.361328 8.0332 0.513672C8.18555 0.666016 8.26172 0.853516 8.26172 1.07617V18.2412C8.26172 18.4639 8.18555 18.6484 8.0332 18.7949C7.88086 18.9473 7.69336 19.0234 7.4707 19.0234ZM10.5029 14.4707C10.2861 14.4707 10.1016 14.3975 9.94922 14.251C9.80273 14.0986 9.72949 13.9141 9.72949 13.6973V5.62012C9.72949 5.40332 9.80273 5.21875 9.94922 5.06641C10.1016 4.91406 10.2861 4.83789 10.5029 4.83789C10.7197 4.83789 10.9043 4.91406 11.0566 5.06641C11.209 5.21875 11.2852 5.40332 11.2852 5.62012V13.6973C11.2852 13.9141 11.209 14.0986 11.0566 14.251C10.9043 14.3975 10.7197 14.4707 10.5029 14.4707ZM12.7529 10.9023V3.00977C12.7529 2.79297 12.8262 2.6084 12.9727 2.45605C13.125 2.29785 13.3125 2.21875 13.5352 2.21875C13.752 2.21875 13.9336 2.29785 14.0801 2.45605C14.2324 2.6084 14.3086 2.79297 14.3086 3.00977V9.54883C13.998 9.71289 13.7109 9.90918 13.4473 10.1377C13.1895 10.3662 12.958 10.6211 12.7529 10.9023ZM15.7852 9.08301V7.33398C15.7852 7.12305 15.8584 6.94141 16.0049 6.78906C16.1514 6.63086 16.3359 6.55176 16.5586 6.55176C16.7754 6.55176 16.96 6.63086 17.1123 6.78906C17.2646 6.94141 17.3408 7.12305 17.3408 7.33398V9.0918C17.083 9.04492 16.8223 9.02148 16.5586 9.02148C16.3008 9.02148 16.043 9.04199 15.7852 9.08301ZM16.4971 17.3711C15.8467 17.3711 15.249 17.21 14.7041 16.8877C14.1592 16.5654 13.7256 16.1318 13.4033 15.5869C13.0811 15.042 12.9199 14.4414 12.9199 13.7852C12.9199 13.1348 13.0811 12.5371 13.4033 11.9922C13.7256 11.4473 14.1592 11.0137 14.7041 10.6914C15.249 10.3691 15.8467 10.208 16.4971 10.208C17.1592 10.208 17.7598 10.3691 18.2988 10.6914C18.8379 11.0137 19.2686 11.4473 19.5908 11.9922C19.9131 12.5312 20.0742 13.1289 20.0742 13.7852C20.0742 14.4473 19.9131 15.0508 19.5908 15.5957C19.2686 16.1348 18.8379 16.5654 18.2988 16.8877C17.7598 17.21 17.1592 17.3711 16.4971 17.3711ZM16.4971 16.0791C16.9131 16.0791 17.2939 15.9766 17.6396 15.7715C17.9912 15.5605 18.2695 15.2822 18.4746 14.9365C18.6797 14.5908 18.7822 14.207 18.7822 13.7852C18.7822 13.3633 18.6797 12.9824 18.4746 12.6426C18.2695 12.2969 17.9912 12.0215 17.6396 11.8164C17.2939 11.6113 16.9131 11.5088 16.4971 11.5088C16.0811 11.5088 15.7002 11.6113 15.3545 11.8164C15.0088 12.0215 14.7305 12.2969 14.5195 12.6426C14.3145 12.9883 14.2119 13.3691 14.2119 13.7852C14.2119 14.207 14.3145 14.5908 14.5195 14.9365C14.7305 15.2822 15.0088 15.5605 15.3545 15.7715C15.7002 15.9766 16.0811 16.0791 16.4971 16.0791ZM21.0234 19.1816C20.7773 19.1816 20.5576 19.0879 20.3643 18.9004L17.7627 16.3164L18.9932 15.1738L21.5596 17.7578C21.6416 17.8457 21.7061 17.9395 21.7529 18.0391C21.7998 18.1387 21.8232 18.2412 21.8232 18.3467C21.8232 18.5928 21.7471 18.792 21.5947 18.9443C21.4424 19.1025 21.252 19.1816 21.0234 19.1816Z" fill="#999999"/>
</svg>
