<svg width="23" height="16" viewBox="0 0 23 16" fill="none" xmlns="http://www.w3.org/2000/svg">
<path d="M11.5 15.1289C10.3932 15.1289 9.34456 14.9933 8.354 14.7222C7.36898 14.4565 6.45312 14.1051 5.60645 13.668C4.7653 13.2253 4.00993 12.7383 3.34033 12.207C2.67074 11.6758 2.09798 11.1445 1.62207 10.6133C1.14616 10.0765 0.780924 9.58122 0.526367 9.12744C0.277344 8.66813 0.152832 8.29736 0.152832 8.01514C0.152832 7.73291 0.277344 7.36491 0.526367 6.91113C0.780924 6.45182 1.14616 5.95654 1.62207 5.42529C2.09798 4.88851 2.67074 4.35449 3.34033 3.82324C4.01546 3.29199 4.7736 2.80778 5.61475 2.37061C6.46143 1.9279 7.37728 1.57373 8.3623 1.30811C9.35286 1.03695 10.3988 0.901367 11.5 0.901367C12.6123 0.901367 13.6637 1.03695 14.6543 1.30811C15.6504 1.57373 16.569 1.9279 17.4102 2.37061C18.2568 2.80778 19.0122 3.29199 19.6763 3.82324C20.3459 4.35449 20.9159 4.88851 21.3862 5.42529C21.8566 5.95654 22.2163 6.45182 22.4653 6.91113C22.7144 7.36491 22.8389 7.73291 22.8389 8.01514C22.8389 8.29736 22.7144 8.66813 22.4653 9.12744C22.2163 9.58122 21.8566 10.0765 21.3862 10.6133C20.9159 11.1445 20.3459 11.6758 19.6763 12.207C19.0122 12.7383 18.2596 13.2253 17.4185 13.668C16.5773 14.1051 15.6587 14.4565 14.6626 14.7222C13.672 14.9933 12.6178 15.1289 11.5 15.1289ZM11.5 13.8174C12.4076 13.8174 13.2791 13.7039 14.1147 13.4771C14.9559 13.2502 15.7445 12.9513 16.4805 12.5806C17.2165 12.2043 17.8833 11.7948 18.481 11.3521C19.0841 10.9093 19.6016 10.4722 20.0332 10.0405C20.4648 9.60335 20.7969 9.20492 21.0293 8.84521C21.2673 8.48551 21.3862 8.20882 21.3862 8.01514C21.3862 7.84912 21.2673 7.59456 21.0293 7.25146C20.7969 6.90837 20.4648 6.51823 20.0332 6.08105C19.6016 5.63835 19.0841 5.19287 18.481 4.74463C17.8833 4.29639 17.2165 3.88135 16.4805 3.49951C15.7445 3.11214 14.9559 2.80225 14.1147 2.56982C13.2791 2.33187 12.4076 2.21289 11.5 2.21289C10.5869 2.21289 9.7098 2.33187 8.86865 2.56982C8.02751 2.80225 7.23893 3.11214 6.50293 3.49951C5.76693 3.88135 5.1001 4.29639 4.50244 4.74463C3.90479 5.19287 3.38737 5.63835 2.9502 6.08105C2.51855 6.51823 2.18652 6.90837 1.9541 7.25146C1.72168 7.59456 1.60547 7.84912 1.60547 8.01514C1.60547 8.20882 1.72168 8.48551 1.9541 8.84521C2.18652 9.20492 2.51855 9.60335 2.9502 10.0405C3.38737 10.4722 3.90479 10.9093 4.50244 11.3521C5.1001 11.7948 5.76693 12.2043 6.50293 12.5806C7.23893 12.9513 8.02751 13.2502 8.86865 13.4771C9.7098 13.7039 10.5869 13.8174 11.5 13.8174ZM11.5 12.6636C10.847 12.6636 10.2383 12.5418 9.67383 12.2983C9.10938 12.0549 8.6141 11.7201 8.18799 11.2939C7.76188 10.8623 7.42708 10.367 7.18359 9.80811C6.94564 9.24365 6.82666 8.646 6.82666 8.01514C6.82666 7.36768 6.94564 6.76172 7.18359 6.19727C7.42708 5.63281 7.76188 5.1403 8.18799 4.71973C8.6141 4.29362 9.10938 3.96159 9.67383 3.72363C10.2383 3.48568 10.847 3.3667 11.5 3.3667C12.1419 3.3667 12.7451 3.48568 13.3096 3.72363C13.874 3.96159 14.3693 4.29362 14.7954 4.71973C15.2215 5.1403 15.5535 5.63281 15.7915 6.19727C16.035 6.76172 16.1567 7.36768 16.1567 8.01514C16.1567 8.646 16.035 9.24365 15.7915 9.80811C15.5535 10.367 15.2215 10.8623 14.7954 11.2939C14.3693 11.7201 13.874 12.0549 13.3096 12.2983C12.7451 12.5418 12.1419 12.6636 11.5 12.6636ZM11.5 9.55908C11.9261 9.55908 12.2913 9.4069 12.5957 9.10254C12.9001 8.79818 13.0522 8.43571 13.0522 8.01514C13.0522 7.58903 12.9001 7.22656 12.5957 6.92773C12.2913 6.62337 11.9261 6.47119 11.5 6.47119C11.0684 6.47119 10.7004 6.62337 10.396 6.92773C10.0916 7.22656 9.93945 7.58903 9.93945 8.01514C9.93945 8.43571 10.0916 8.79818 10.396 9.10254C10.7004 9.4069 11.0684 9.55908 11.5 9.55908Z" fill="white"/>
</svg>
