<svg width="16" height="18" viewBox="0 0 16 18" fill="none" xmlns="http://www.w3.org/2000/svg">
<path d="M0.662109 10.6045C0.662109 9.5918 0.85026 8.64274 1.22656 7.75732C1.6084 6.86637 2.13411 6.0861 2.80371 5.4165C3.47331 4.74691 4.25081 4.22396 5.13623 3.84766C6.02718 3.46582 6.98177 3.2749 8 3.2749C8.25456 3.2749 8.50081 3.28874 8.73877 3.31641C8.98226 3.33854 9.21191 3.37174 9.42773 3.41602L7.21973 1.23291C7.15885 1.1665 7.11182 1.0918 7.07861 1.00879C7.05094 0.925781 7.03711 0.842773 7.03711 0.759766C7.03711 0.566081 7.09798 0.405599 7.21973 0.27832C7.34701 0.145508 7.50472 0.0791016 7.69287 0.0791016C7.89209 0.0791016 8.05257 0.145508 8.17432 0.27832L11.5942 3.74805C11.7326 3.89193 11.8018 4.05794 11.8018 4.24609C11.8018 4.34017 11.7852 4.42871 11.752 4.51172C11.7188 4.59473 11.6662 4.6722 11.5942 4.74414L8.17432 8.18066C8.05811 8.30794 7.89762 8.37158 7.69287 8.37158C7.51025 8.37158 7.35531 8.30794 7.22803 8.18066C7.10075 8.05339 7.03711 7.89567 7.03711 7.70752C7.03711 7.61898 7.05371 7.53597 7.08691 7.4585C7.12012 7.37549 7.16715 7.30078 7.22803 7.23438L9.70996 4.77734C9.46647 4.72201 9.19808 4.6805 8.90479 4.65283C8.61702 4.62516 8.31543 4.61133 8 4.61133C7.16439 4.61133 6.38411 4.76628 5.65918 5.07617C4.93424 5.38607 4.29785 5.81494 3.75 6.36279C3.20215 6.91064 2.77327 7.54704 2.46338 8.27197C2.15348 8.99691 1.99854 9.77441 1.99854 10.6045C1.99854 11.4401 2.15348 12.2231 2.46338 12.9536C2.77327 13.6785 3.20215 14.3177 3.75 14.8711C4.29785 15.4189 4.93424 15.8451 5.65918 16.1494C6.38411 16.4593 7.16439 16.6143 8 16.6143C8.83008 16.6143 9.60758 16.4593 10.3325 16.1494C11.0575 15.8451 11.6938 15.4189 12.2417 14.8711C12.7896 14.3177 13.2184 13.6785 13.5283 12.9536C13.8382 12.2231 13.9932 11.4401 13.9932 10.6045C13.9932 10.4053 14.0513 10.242 14.1675 10.1147C14.2837 9.98193 14.4414 9.91553 14.6406 9.91553C14.8454 9.91553 15.0114 9.98193 15.1387 10.1147C15.266 10.242 15.3296 10.4053 15.3296 10.6045C15.3296 11.6283 15.1414 12.5856 14.7651 13.4766C14.3888 14.362 13.8631 15.1423 13.188 15.8174C12.5184 16.487 11.7381 17.0099 10.8472 17.3862C9.96175 17.7625 9.0127 17.9507 8 17.9507C6.98177 17.9507 6.02718 17.7625 5.13623 17.3862C4.25081 17.0099 3.47331 16.487 2.80371 15.8174C2.13411 15.1423 1.6084 14.362 1.22656 13.4766C0.85026 12.5856 0.662109 11.6283 0.662109 10.6045Z" fill="#007AFF"/>
</svg>
