<svg width="13" height="16" viewBox="0 0 13 16" fill="none" xmlns="http://www.w3.org/2000/svg">
<path d="M1.16699 15.0459C0.86263 15.0459 0.619141 14.9352 0.436523 14.7139C0.25944 14.498 0.170898 14.2103 0.170898 13.8506V2.17969C0.170898 1.81999 0.25944 1.53223 0.436523 1.31641C0.619141 1.10059 0.86263 0.992676 1.16699 0.992676C1.33301 0.992676 1.49072 1.02311 1.64014 1.08398C1.78955 1.13932 1.94727 1.21403 2.11328 1.30811L11.792 6.91113C12.1406 7.11035 12.3813 7.2902 12.5142 7.45068C12.6525 7.60563 12.7217 7.79378 12.7217 8.01514C12.7217 8.23649 12.6525 8.42741 12.5142 8.58789C12.3813 8.74284 12.1406 8.92269 11.792 9.12744L2.11328 14.7222C1.94727 14.8218 1.78955 14.8993 1.64014 14.9546C1.49072 15.0155 1.33301 15.0459 1.16699 15.0459Z" fill="white"/>
</svg>
