<svg width="18" height="18" viewBox="0 0 18 18" fill="none" xmlns="http://www.w3.org/2000/svg">
<path d="M9 17.4736C7.84342 17.4736 6.75326 17.2523 5.72949 16.8096C4.71126 16.3669 3.81201 15.7554 3.03174 14.9751C2.25146 14.1948 1.63997 13.2956 1.19727 12.2773C0.754557 11.2536 0.533203 10.1634 0.533203 9.00684C0.533203 7.85026 0.754557 6.76286 1.19727 5.74463C1.63997 4.72087 2.2487 3.81885 3.02344 3.03857C3.80371 2.2583 4.70296 1.64681 5.72119 1.2041C6.74495 0.761393 7.83512 0.540039 8.9917 0.540039C10.1483 0.540039 11.2384 0.761393 12.2622 1.2041C13.286 1.64681 14.188 2.2583 14.9683 3.03857C15.7485 3.81885 16.36 4.72087 16.8027 5.74463C17.2454 6.76286 17.4668 7.85026 17.4668 9.00684C17.4668 10.1634 17.2454 11.2536 16.8027 12.2773C16.36 13.2956 15.7485 14.1948 14.9683 14.9751C14.188 15.7554 13.286 16.3669 12.2622 16.8096C11.244 17.2523 10.1566 17.4736 9 17.4736ZM6.74219 12.1196H11.2578C11.5234 12.1196 11.731 12.0449 11.8804 11.8955C12.0353 11.7461 12.1128 11.5386 12.1128 11.2729V6.72412C12.1128 6.46403 12.0353 6.25928 11.8804 6.10986C11.731 5.96045 11.5234 5.88574 11.2578 5.88574H6.74219C6.47656 5.88574 6.26628 5.96045 6.11133 6.10986C5.96191 6.25928 5.88721 6.46403 5.88721 6.72412V11.2729C5.88721 11.5386 5.96191 11.7461 6.11133 11.8955C6.26628 12.0449 6.47656 12.1196 6.74219 12.1196Z" fill="#007AFF"/>
</svg>
