<svg width="16" height="20" viewBox="0 0 16 20" fill="none" xmlns="http://www.w3.org/2000/svg">
<path d="M4.7832 5.48828C4.61914 5.48828 4.48438 5.43262 4.37891 5.32129C4.27344 5.20996 4.2207 5.07812 4.2207 4.92578C4.2207 4.76758 4.27344 4.63574 4.37891 4.53027C4.48438 4.4248 4.61914 4.37207 4.7832 4.37207H11.2168C11.375 4.37207 11.5068 4.4248 11.6123 4.53027C11.7178 4.63574 11.7705 4.76758 11.7705 4.92578C11.7705 5.07812 11.7178 5.20996 11.6123 5.32129C11.5068 5.43262 11.375 5.48828 11.2168 5.48828H4.7832ZM4.7832 8.48535C4.61914 8.48535 4.48438 8.43262 4.37891 8.32715C4.27344 8.21582 4.2207 8.08105 4.2207 7.92285C4.2207 7.77051 4.27344 7.6416 4.37891 7.53613C4.48438 7.43066 4.61914 7.37793 4.7832 7.37793H11.2168C11.375 7.37793 11.5068 7.43066 11.6123 7.53613C11.7178 7.6416 11.7705 7.77051 11.7705 7.92285C11.7705 8.08105 11.7178 8.21582 11.6123 8.32715C11.5068 8.43262 11.375 8.48535 11.2168 8.48535H4.7832ZM4.7832 11.4912C4.61914 11.4912 4.48438 11.4385 4.37891 11.333C4.27344 11.2275 4.2207 11.0986 4.2207 10.9463C4.2207 10.7881 4.27344 10.6562 4.37891 10.5508C4.48438 10.4395 4.61914 10.3838 4.7832 10.3838H7.89453C8.05859 10.3838 8.19336 10.4395 8.29883 10.5508C8.4043 10.6562 8.45703 10.7881 8.45703 10.9463C8.45703 11.0986 8.4043 11.2275 8.29883 11.333C8.19336 11.4385 8.05859 11.4912 7.89453 11.4912H4.7832ZM0.458984 16.29V3.02734C0.458984 2.08398 0.699219 1.36914 1.17969 0.882812C1.66016 0.390625 2.37207 0.144531 3.31543 0.144531H12.6758C13.6191 0.144531 14.3311 0.390625 14.8115 0.882812C15.292 1.36914 15.5322 2.08398 15.5322 3.02734V16.29C15.5322 17.2393 15.292 17.957 14.8115 18.4434C14.3311 18.9297 13.6191 19.1729 12.6758 19.1729H3.31543C2.37207 19.1729 1.66016 18.9297 1.17969 18.4434C0.699219 17.957 0.458984 17.2393 0.458984 16.29ZM2.19043 16.1846C2.19043 16.5889 2.2959 16.8994 2.50684 17.1162C2.71777 17.333 3.03711 17.4414 3.46484 17.4414H12.5352C12.9629 17.4414 13.2822 17.333 13.4932 17.1162C13.7041 16.8994 13.8096 16.5889 13.8096 16.1846V3.1416C13.8096 2.73145 13.7041 2.41797 13.4932 2.20117C13.2822 1.97852 12.9629 1.86719 12.5352 1.86719H3.46484C3.03711 1.86719 2.71777 1.97852 2.50684 2.20117C2.2959 2.41797 2.19043 2.73145 2.19043 3.1416V16.1846Z" fill="#999999"/>
</svg>
