<svg width="17" height="18" viewBox="0 0 17 18" fill="none" xmlns="http://www.w3.org/2000/svg">
<path d="M8.5 17.4819C7.34342 17.4819 6.25326 17.2606 5.22949 16.8179C4.21126 16.3752 3.31201 15.7637 2.53174 14.9834C1.75146 14.2031 1.13997 13.3039 0.697266 12.2856C0.254557 11.2619 0.0332031 10.1717 0.0332031 9.01514C0.0332031 7.85856 0.254557 6.77116 0.697266 5.75293C1.13997 4.72917 1.7487 3.82715 2.52344 3.04688C3.30371 2.2666 4.20296 1.65511 5.22119 1.2124C6.24495 0.769694 7.33512 0.54834 8.4917 0.54834C9.64827 0.54834 10.7384 0.769694 11.7622 1.2124C12.786 1.65511 13.688 2.2666 14.4683 3.04688C15.2485 3.82715 15.86 4.72917 16.3027 5.75293C16.7454 6.77116 16.9668 7.85856 16.9668 9.01514C16.9668 10.1717 16.7454 11.2619 16.3027 12.2856C15.86 13.3039 15.2485 14.2031 14.4683 14.9834C13.688 15.7637 12.786 16.3752 11.7622 16.8179C10.744 17.2606 9.65658 17.4819 8.5 17.4819ZM6.74023 9.01514C6.74023 8.09098 6.49951 7.29411 6.01807 6.62451C5.92399 6.4917 5.79671 6.41146 5.63623 6.38379C5.48128 6.35059 5.3374 6.37826 5.20459 6.4668C5.05518 6.56641 4.96663 6.70199 4.93896 6.87354C4.91683 7.03955 4.96387 7.19727 5.08008 7.34668C5.40658 7.77832 5.56982 8.33447 5.56982 9.01514C5.56982 9.67367 5.40658 10.2271 5.08008 10.6753C4.9694 10.8302 4.92513 10.9907 4.94727 11.1567C4.97493 11.3172 5.06071 11.45 5.20459 11.5552C5.3374 11.6493 5.48405 11.6797 5.64453 11.6465C5.80501 11.6133 5.92952 11.5303 6.01807 11.3975C6.24495 11.0986 6.42204 10.7389 6.54932 10.3184C6.6766 9.89779 6.74023 9.46338 6.74023 9.01514ZM9.42139 9.01514C9.42139 8.2902 9.31901 7.59294 9.11426 6.92334C8.90951 6.25374 8.61621 5.65885 8.23438 5.13867C8.12923 5.00033 7.99919 4.91732 7.84424 4.88965C7.69482 4.85645 7.55094 4.88688 7.4126 4.98096C7.28532 5.07503 7.20785 5.20231 7.18018 5.36279C7.15251 5.52327 7.19124 5.67822 7.29639 5.82764C7.59521 6.24821 7.82764 6.73519 7.99365 7.28857C8.1652 7.84196 8.25098 8.41748 8.25098 9.01514C8.25098 9.60726 8.1652 10.18 7.99365 10.7334C7.82764 11.2868 7.59521 11.7765 7.29639 12.2026C7.19124 12.3465 7.15251 12.5015 7.18018 12.6675C7.20785 12.828 7.28532 12.9525 7.4126 13.041C7.55094 13.1406 7.69482 13.1766 7.84424 13.1489C7.99919 13.1157 8.12923 13.0299 8.23438 12.8916C8.61621 12.3604 8.90951 11.7599 9.11426 11.0903C9.31901 10.4207 9.42139 9.729 9.42139 9.01514ZM12.0942 9.01514C12.0942 8.03564 11.9531 7.08659 11.6709 6.16797C11.3942 5.24382 10.993 4.40544 10.4673 3.65283C10.3677 3.50342 10.2376 3.41211 10.0771 3.37891C9.9222 3.3457 9.77555 3.37891 9.63721 3.47852C9.50439 3.57812 9.42692 3.70817 9.40479 3.86865C9.38265 4.0236 9.42139 4.17301 9.521 4.31689C9.98031 4.96436 10.3317 5.69206 10.5752 6.5C10.8187 7.30794 10.9404 8.14632 10.9404 9.01514C10.9404 9.87288 10.8159 10.7085 10.5669 11.522C10.3234 12.3354 9.97477 13.0659 9.521 13.7134C9.42139 13.8573 9.38265 14.0094 9.40479 14.1699C9.42692 14.3249 9.50439 14.4521 9.63721 14.5518C9.77002 14.6458 9.9139 14.6763 10.0688 14.6431C10.2293 14.6099 10.3621 14.5213 10.4673 14.3774C10.993 13.6304 11.3942 12.7948 11.6709 11.8706C11.9531 10.9465 12.0942 9.99463 12.0942 9.01514Z" fill="white"/>
</svg>
